<?xml version="1.0" encoding="UTF-8" standalone="no"?>
<!DOCTYPE svg PUBLIC "-//W3C//DTD SVG 1.1//EN"
 "http://www.w3.org/Graphics/SVG/1.1/DTD/svg11.dtd">
<!-- Generated by graphviz version 2.26.0 (20091210.2329)
 -->
<!-- Title: G Pages: 1 -->
<svg width="332pt" height="99pt"
 viewBox="0.00 0.00 332.00 99.00" xmlns="http://www.w3.org/2000/svg" xmlns:xlink="http://www.w3.org/1999/xlink">
<g id="graph1" class="graph" transform="scale(1 1) rotate(0) translate(4 95)">
<title>G</title>
<polygon fill="white" stroke="white" points="-4,5 -4,-95 329,-95 329,5 -4,5"/>
<g id="graph2" class="cluster"><title>cluster_Global</title>
<polyline fill="none" stroke="gray" points="20,-8 304,-8 "/>
<path fill="none" stroke="gray" d="M304,-8C310,-8 316,-14 316,-20"/>
<polyline fill="none" stroke="gray" points="316,-20 316,-71 "/>
<path fill="none" stroke="gray" d="M316,-71C316,-77 310,-83 304,-83"/>
<polyline fill="none" stroke="gray" points="304,-83 20,-83 "/>
<path fill="none" stroke="gray" d="M20,-83C14,-83 8,-77 8,-71"/>
<polyline fill="none" stroke="gray" points="8,-71 8,-20 "/>
<path fill="none" stroke="gray" d="M8,-20C8,-14 14,-8 20,-8"/>
<text text-anchor="middle" x="162" y="-69.1" font-family="Times Roman,serif" font-size="11.00" fill="gray">Global</text>
</g>
<!-- \\Beciteable_AdminImpl -->
<g id="node2" class="node"><title>\\Beciteable_AdminImpl</title>
<polygon fill="none" stroke="black" points="308,-52 188,-52 188,-16 308,-16 308,-52"/>
<text text-anchor="middle" x="248" y="-31.6" font-family="Times Roman,serif" font-size="11.00">Beciteable_AdminImpl</text>
</g>
<!-- \\Beciteable_Admin -->
<g id="node3" class="node"><title>\\Beciteable_Admin</title>
<polygon fill="none" stroke="black" points="116,-52 16,-52 16,-16 116,-16 116,-52"/>
<text text-anchor="middle" x="66" y="-31.6" font-family="Times Roman,serif" font-size="11.00">Beciteable_Admin</text>
</g>
<!-- \\Beciteable_AdminImpl&#45;&gt;\\Beciteable_Admin -->
<g id="edge3" class="edge"><title>\\Beciteable_AdminImpl&#45;&gt;\\Beciteable_Admin</title>
<path fill="none" stroke="black" stroke-dasharray="1,5" d="M187.902,-34C168.064,-34 146.002,-34 126.159,-34"/>
<polygon fill="none" stroke="black" points="126.008,-30.5001 116.008,-34 126.008,-37.5001 126.008,-30.5001"/>
</g>
</g>
</svg>
